Coordinates
version=1
nRows=22
nColumns=24
inDegrees=yes

Units are S.I. units (second, meters, Newtons, ...)
Angles are in degrees.

endheader
time	pelvis_tilt	pelvis_list	pelvis_rotation	pelvis_tx	pelvis_ty	pelvis_tz	hip_flexion_r	hip_adduction_r	hip_rotation_r	knee_angle_r	ankle_angle_r	subtalar_angle_r	mtp_angle_r	hip_flexion_l	hip_adduction_l	hip_rotation_l	knee_angle_l	ankle_angle_l	subtalar_angle_l	mtp_angle_l	lumbar_extension	lumbar_bending	lumbar_rotation
      3.15000000	      6.49311317	     -6.38517954	     -8.46113578	     -0.63211073	      0.98912642	      0.05082031	    -24.69744957	      3.35629554	      3.16771865	     -4.00324307	     17.66206244	      9.42376224	      5.28017123	     15.52320614	     -9.41403427	    -15.68238427	     -1.60376264	     -0.65901992	     11.66255123	     24.80592779	    -16.60595543	      6.42033162	      8.87076394
      3.15500000	      6.51536202	     -6.25317541	     -8.37627553	     -0.62565770	      0.98833697	      0.04990835	    -24.96353142	      3.12449670	      2.98184727	     -4.23826668	     17.73366663	      9.64378054	      5.63359646	     15.60403110	     -9.19245182	    -15.66295148	     -2.02271929	     -1.17132119	     11.25410406	     24.91581722	    -16.53755452	      6.30625494	      8.71082921
      3.16000000	      6.51308660	     -6.07532238	     -8.33541887	     -0.61920922	      0.98761364	      0.04905577	    -25.18755256	      2.83359423	      2.90441242	     -4.48126216	     17.77899947	      9.81814189	      5.92413193	     15.71765929	     -8.94104591	    -15.64697072	     -2.52273465	     -1.71566437	     10.72205911	     25.03952091	    -16.43950725	      6.13279310	      8.58259598
      3.16500000	      6.46893329	     -5.89389108	     -8.24303347	     -0.61280585	      0.98688694	      0.04814470	    -25.34210290	      2.57628986	      2.80253040	     -4.75683532	     17.60204664	      9.81862127	      8.22841114	     15.91425140	     -8.68734943	    -15.52599323	     -3.08622475	     -2.55257985	     10.10269764	     27.01290392	    -16.29869498	      5.97315891	      8.40700301
      3.17000000	      6.46865384	     -5.67396343	     -8.14379038	     -0.60639815	      0.98631256	      0.04722878	    -25.53286531	      2.27706380	      2.70300223	     -5.04600416	     17.57487655	      9.89656713	      8.41326048	     16.06764918	     -8.38815943	    -15.36842349	     -3.70975151	     -3.18510978	      9.53752933	     26.96552398	    -16.20233656	      5.76199896	      8.21727809
      3.17500000	      6.44443012	     -5.43938645	     -8.00791846	     -0.60002849	      0.98576530	      0.04625531	    -25.66766527	      1.98594365	      2.56096027	     -5.38588756	     17.54423856	      9.99977970	      8.73605961	     16.27874073	     -8.07241141	    -15.11774599	     -4.40191717	     -3.83411414	      8.93194454	     27.05296421	    -16.08244341	      5.54667713	      7.99682446
      3.18000000	      6.29956851	     -5.21630950	     -7.81927632	     -0.59369886	      0.98513563	      0.04523505	    -25.64613968	      1.75903609	      2.39126696	     -5.76724745	     17.25269977	      9.94827338	     11.12852464	     16.67327960	     -7.78449038	    -14.77350814	     -5.18591813	     -4.62127897	      8.33498203	     28.70219010	    -15.83410586	      5.37331266	      7.73477623
      3.18500000	      6.34034668	     -4.94099194	     -7.71312562	     -0.58740820	      0.98491077	      0.04432325	    -25.80256404	      1.41887684	      2.36763283	     -6.16614649	     17.16102634	      9.88421217	     11.37202320	     16.80150480	     -7.43079447	    -14.52381505	     -5.91234273	     -5.26686890	      7.68696165	     28.65573304	    -15.79958902	      5.08600634	      7.55877820
      3.19000000	      6.23374792	     -4.68994103	     -7.52492697	     -0.58115901	      0.98453699	      0.04330011	    -25.77416576	      1.17045121	      2.27967526	     -6.60737349	     16.75005580	      9.64671302	     14.35607886	     17.15525612	     -7.10944990	    -14.12118110	     -6.74119375	     -5.97170154	      7.02914813	     29.86124941	    -15.60733810	      4.86959724	      7.32214050
      3.19500000	      6.16544496	     -4.40483930	     -7.30749062	     -0.57488489	      0.98427771	      0.04224700	    -25.75177216	      0.89292019	      2.07881446	     -7.12681104	     16.62560574	      9.70042305	     14.80680078	     17.48967141	     -6.74547956	    -13.70196363	     -7.64527991	     -6.38870484	      6.49766642	     29.81455531	    -15.45315224	      4.61189873	      7.04421290
      3.20000000	      6.07133192	     -4.15574655	     -7.07085658	     -0.56868327	      0.98410566	      0.04118631	    -25.68871782	      0.67766791	      1.96818350	     -7.64851072	     16.14583724	      9.39655670	     17.31977342	     17.85622253	     -6.41829804	    -13.22047777	     -8.56179170	     -6.84759498	      5.94448317	     30.19516341	    -15.28919308	      4.39781458	      6.77926294
      3.20500000	      6.02407292	     -3.87183204	     -6.82690646	     -0.56243707	      0.98407971	      0.04009064	    -25.63031080	      0.41668884	      1.74041245	     -8.26806789	     15.94000720	      9.42986223	     17.50982520	     18.15933265	     -6.04135353	    -12.74278245	     -9.47924596	     -7.18013299	      5.39859425	     30.10137043	    -15.17098699	      4.14052547	      6.49771019
      3.21000000	      5.88517836	     -3.64500386	     -6.56338283	     -0.55624448	      0.98400098	      0.03899049	    -25.45566713	      0.24551070	      1.58204082	     -8.90359567	     15.37635137	      9.15289486	     20.28538499	     18.60036859	     -5.73629614	    -12.20046235	    -10.49580922	     -7.32670211	      4.93851306	     30.06092721	    -14.96722160	      3.96029566	      6.24299120
      3.21500000	      5.86848330	     -3.37054044	     -6.28148176	     -0.55001346	      0.98415785	      0.03781872	    -25.36130882	      0.00711191	      1.27684425	     -9.64929802	     15.11791452	      9.21509961	     20.51808776	     18.86230070	     -5.34357376	    -11.64268638	    -11.42560342	     -7.47446399	      4.38260594	     29.95424766	    -14.89485726	      3.71721777	      5.96109053
      3.22000000	      5.75355896	     -3.18020002	     -6.00008325	     -0.54385431	      0.98427067	      0.03666865	    -25.13729145	     -0.12368510	      1.08634333	    -10.41384669	     14.48091474	      8.92590014	     23.62211931	     19.26295368	     -5.05691234	    -11.06341693	    -12.45609720	     -7.38315103	      4.00643048	     29.38213009	    -14.73458016	      3.57753576	      5.71970775
      3.22500000	      5.71443445	     -2.93267131	     -5.69835911	     -0.53759923	      0.98455622	      0.03542870	    -24.95401583	     -0.33122788	      0.71661411	    -11.27144194	     14.10219120	      9.04616861	     23.85511822	     19.52476214	     -4.67233703	    -10.46015762	    -13.37903146	     -7.35947761	      3.49909797	     29.27026086	    -14.64571566	      3.37498556	      5.45464571
      3.23000000	      5.60234577	     -2.75510567	     -5.42186506	     -0.53140909	      0.98482819	      0.03424047	    -24.65559569	     -0.46159341	      0.48039805	    -12.16451877	     13.37218880	      8.82056120	     26.78620919	     19.86967982	     -4.37903010	     -9.89157925	    -14.35500398	     -7.07238672	      3.22378312	     28.26886053	    -14.49489378	      3.25025067	      5.22346990
      3.23500000	      5.64878952	     -2.53822578	     -5.11117557	     -0.52516342	      0.98535623	      0.03292568	    -24.48916316	     -0.65972591	      0.04362460	    -13.15101790	     12.92483054	      9.00901394	     27.00934248	     19.98230593	     -3.99301892	     -9.28851194	    -15.20718063	     -6.88850617	      2.78156989	     28.16272718	    -14.51280569	      3.08020971	      4.97119768
      3.24000000	      5.56304824	     -2.39035550	     -4.85050562	     -0.51898909	      0.98580962	      0.03169197	    -24.12269678	     -0.78741284	     -0.24576135	    -14.19914969	     12.10404703	      8.83923337	     30.01692378	     20.22184111	     -3.70684203	     -8.73097643	    -16.07815128	     -6.44407508	      2.57883442	     26.78641824	    -14.40188389	      2.98933696	      4.78080211
      3.24500000	      5.60865215	     -2.18507038	     -4.56900729	     -0.51274732	      0.98647919	      0.03035213	    -23.86159762	     -1.00700648	     -0.70820176	    -15.33322668	     11.56030009	      9.10638634	     30.23288583	     20.24832033	     -3.32059639	     -8.18972647	    -16.80405127	     -6.18133756	      2.21341657	     26.67580147	    -14.42586572	      2.83520041	      4.56900379
      3.25000000	      5.59865145	     -2.03547198	     -4.33472343	     -0.50656201	      0.98716222	      0.02908121	    -23.49442489	     -1.17992395	     -1.04352047	    -16.50271124	     10.66263010	      9.02718115	     33.01631777	     20.30008207	     -3.01100889	     -7.70739243	    -17.51133182	     -5.64834458	      2.07674506	     25.05262425	    -14.40077307	      2.73931938	      4.41624310
      3.25500000	      5.62606938	     -1.85059263	     -4.09557200	     -0.50037451	      0.98793218	      0.02773729	    -23.10989299	     -1.41732268	     -1.49031911	    -17.79111854	     10.02596188	      9.29042343	     33.19906813	     20.25009645	     -2.64350325	     -7.24388688	    -18.08856924	     -5.33273499	      1.78530594	     24.94244244	    -14.41577594	      2.60983830	      4.24790012
